<?xml version="1.0" encoding="UTF-8" standalone="no"?>
<!-- Created with Inkscape (http://www.inkscape.org/) -->

<svg
   xmlns:dc="http://purl.org/dc/elements/1.1/"
   xmlns:cc="http://creativecommons.org/ns#"
   xmlns:rdf="http://www.w3.org/1999/02/22-rdf-syntax-ns#"
   xmlns:svg="http://www.w3.org/2000/svg"
   xmlns="http://www.w3.org/2000/svg"
   xmlns:sodipodi="http://sodipodi.sourceforge.net/DTD/sodipodi-0.dtd"
   xmlns:inkscape="http://www.inkscape.org/namespaces/inkscape"
   width="522.58752"
   height="572.22748"
   id="svg2"
   version="1.1"
   inkscape:version="0.48.4 r9939"
   sodipodi:docname="curve.png">
  <defs
     id="defs4">
    <marker
       inkscape:stockid="Arrow1Lend"
       orient="auto"
       refY="0.0"
       refX="0.0"
       id="Arrow1Lend"
       style="overflow:visible;">
      <path
         id="path4599"
         d="M 0.0,0.0 L 5.0,-5.0 L -12.5,0.0 L 5.0,5.0 L 0.0,0.0 z "
         style="fill-rule:evenodd;stroke:#000000;stroke-width:1.0pt;"
         transform="scale(0.8) rotate(180) translate(12.5,0)" />
    </marker>
    <marker
       inkscape:stockid="Arrow1Lstart"
       orient="auto"
       refY="0.0"
       refX="0.0"
       id="Arrow1Lstart"
       style="overflow:visible">
      <path
         id="path4596"
         d="M 0.0,0.0 L 5.0,-5.0 L -12.5,0.0 L 5.0,5.0 L 0.0,0.0 z "
         style="fill-rule:evenodd;stroke:#000000;stroke-width:1.0pt"
         transform="scale(0.8) translate(12.5,0)" />
    </marker>
    <clipPath
       id="clipPath3240"
       clipPathUnits="userSpaceOnUse">
      <path
         id="path3242"
         clip-rule="evenodd"
         d="m 50.4,54 741.12,0 0,487.32 -741.12,0 0,-487.32 z"
         inkscape:connector-curvature="0" />
    </clipPath>
    <clipPath
       id="clipPath3228"
       clipPathUnits="userSpaceOnUse">
      <path
         id="path3230"
         clip-rule="evenodd"
         d="m 50.4,62.4 732.96,0 0,478.92 -732.96,0 0,-478.92 z"
         inkscape:connector-curvature="0" />
    </clipPath>
    <clipPath
       id="clipPath3216"
       clipPathUnits="userSpaceOnUse">
      <path
         id="path3218"
         clip-rule="evenodd"
         d="m 50.4,62.4 732.96,0 0,478.92 -732.96,0 0,-478.92 z"
         inkscape:connector-curvature="0" />
    </clipPath>
    <clipPath
       id="clipPath3204"
       clipPathUnits="userSpaceOnUse">
      <path
         id="path3206"
         clip-rule="evenodd"
         d="m 50.4,62.4 732.96,0 0,478.92 -732.96,0 0,-478.92 z"
         inkscape:connector-curvature="0" />
    </clipPath>
    <clipPath
       id="clipPath3192"
       clipPathUnits="userSpaceOnUse">
      <path
         id="path3194"
         clip-rule="evenodd"
         d="m 50.4,62.4 732.96,0 0,478.92 -732.96,0 0,-478.92 z"
         inkscape:connector-curvature="0" />
    </clipPath>
    <clipPath
       id="clipPath3180"
       clipPathUnits="userSpaceOnUse">
      <path
         id="path3182"
         clip-rule="evenodd"
         d="m 50.4,62.4 732.96,0 0,478.92 -732.96,0 0,-478.92 z"
         inkscape:connector-curvature="0" />
    </clipPath>
    <clipPath
       id="clipPath3168"
       clipPathUnits="userSpaceOnUse">
      <path
         id="path3170"
         clip-rule="evenodd"
         d="m 50.4,62.4 732.96,0 0,478.92 -732.96,0 0,-478.92 z"
         inkscape:connector-curvature="0" />
    </clipPath>
    <clipPath
       id="clipPath3156"
       clipPathUnits="userSpaceOnUse">
      <path
         id="path3158"
         clip-rule="evenodd"
         d="m 50.4,62.4 732.96,0 0,478.92 -732.96,0 0,-478.92 z"
         inkscape:connector-curvature="0" />
    </clipPath>
    <clipPath
       id="clipPath3144"
       clipPathUnits="userSpaceOnUse">
      <path
         id="path3146"
         clip-rule="evenodd"
         d="m 50.4,62.4 732.96,0 0,478.92 -732.96,0 0,-478.92 z"
         inkscape:connector-curvature="0" />
    </clipPath>
    <clipPath
       id="clipPath3132"
       clipPathUnits="userSpaceOnUse">
      <path
         id="path3134"
         clip-rule="evenodd"
         d="m 50.4,62.4 732.96,0 0,478.92 -732.96,0 0,-478.92 z"
         inkscape:connector-curvature="0" />
    </clipPath>
    <clipPath
       id="clipPath3120"
       clipPathUnits="userSpaceOnUse">
      <path
         id="path3122"
         clip-rule="evenodd"
         d="m 50.4,62.4 732.96,0 0,478.92 -732.96,0 0,-478.92 z"
         inkscape:connector-curvature="0" />
    </clipPath>
    <clipPath
       id="clipPath3108"
       clipPathUnits="userSpaceOnUse">
      <path
         id="path3110"
         clip-rule="evenodd"
         d="m 50.4,62.4 732.96,0 0,478.92 -732.96,0 0,-478.92 z"
         inkscape:connector-curvature="0" />
    </clipPath>
    <clipPath
       id="clipPath3096"
       clipPathUnits="userSpaceOnUse">
      <path
         id="path3098"
         clip-rule="evenodd"
         d="m 50.4,62.4 732.96,0 0,478.92 -732.96,0 0,-478.92 z"
         inkscape:connector-curvature="0" />
    </clipPath>
    <clipPath
       id="clipPath3084"
       clipPathUnits="userSpaceOnUse">
      <path
         id="path3086"
         clip-rule="evenodd"
         d="m 50.4,62.4 732.96,0 0,478.92 -732.96,0 0,-478.92 z"
         inkscape:connector-curvature="0" />
    </clipPath>
    <clipPath
       id="clipPath3072"
       clipPathUnits="userSpaceOnUse">
      <path
         id="path3074"
         clip-rule="evenodd"
         d="m 50.4,62.4 732.96,0 0,478.92 -732.96,0 0,-478.92 z"
         inkscape:connector-curvature="0" />
    </clipPath>
    <clipPath
       id="clipPath3060"
       clipPathUnits="userSpaceOnUse">
      <path
         id="path3062"
         clip-rule="evenodd"
         d="m 50.4,62.4 732.96,0 0,478.92 -732.96,0 0,-478.92 z"
         inkscape:connector-curvature="0" />
    </clipPath>
    <clipPath
       id="clipPath3048"
       clipPathUnits="userSpaceOnUse">
      <path
         id="path3050"
         clip-rule="evenodd"
         d="m 50.4,62.4 732.96,0 0,478.92 -732.96,0 0,-478.92 z"
         inkscape:connector-curvature="0" />
    </clipPath>
    <clipPath
       id="clipPath3036"
       clipPathUnits="userSpaceOnUse">
      <path
         id="path3038"
         clip-rule="evenodd"
         d="m 50.4,62.4 732.96,0 0,478.92 -732.96,0 0,-478.92 z"
         inkscape:connector-curvature="0" />
    </clipPath>
    <clipPath
       id="clipPath3024"
       clipPathUnits="userSpaceOnUse">
      <path
         id="path3026"
         clip-rule="evenodd"
         d="m 50.4,62.4 732.96,0 0,478.92 -732.96,0 0,-478.92 z"
         inkscape:connector-curvature="0" />
    </clipPath>
  </defs>
  <sodipodi:namedview
     id="base"
     pagecolor="#ffffff"
     bordercolor="#666666"
     borderopacity="1.0"
     inkscape:pageopacity="0.0"
     inkscape:pageshadow="2"
     inkscape:zoom="1.4"
     inkscape:cx="354.93"
     inkscape:cy="289.44269"
     inkscape:document-units="px"
     inkscape:current-layer="g3004"
     showgrid="false"
     inkscape:window-width="1920"
     inkscape:window-height="1018"
     inkscape:window-x="-8"
     inkscape:window-y="-8"
     inkscape:window-maximized="1"
     showguides="true"
     inkscape:guide-bbox="true"
     fit-margin-top="0"
     fit-margin-left="0"
     fit-margin-right="0"
     fit-margin-bottom="0" />
  <metadata
     id="metadata7">
    <rdf:RDF>
      <cc:Work
         rdf:about="">
        <dc:format>image/svg+xml</dc:format>
        <dc:type
           rdf:resource="http://purl.org/dc/dcmitype/StillImage" />
        <dc:title></dc:title>
      </cc:Work>
    </rdf:RDF>
  </metadata>
  <g
     inkscape:label="Ebene 1"
     inkscape:groupmode="layer"
     id="layer1"
     transform="translate(-125.62121,-140.38388)">
    <g
       transform="matrix(1.25,0,0,-1.25,-152.13733,843.14858)"
       inkscape:label="Book1"
       id="g3004">
      <path
         id="path3014-5"
         style="fill:none;stroke:#666666;stroke-width:0.75000000000000000;stroke-linecap:butt;stroke-linejoin:round;stroke-miterlimit:10;stroke-opacity:1;stroke-dasharray:none;marker-end:none;marker-start:url(#Arrow1Lstart)"
         d="m 435.34969,542.11835 0,-417.32"
         inkscape:connector-curvature="0" />
      <path
         id="path3014"
         style="fill:none;stroke:#666666;stroke-width:0.75000000000000000;stroke-linecap:butt;stroke-linejoin:round;stroke-miterlimit:10;stroke-opacity:1;stroke-dasharray:none;marker-end:url(#Arrow1Lend)"
         d="m 222.58183,333.31676 417.32,0"
         inkscape:connector-curvature="0" />
      <path
         id="path3016"
         style="fill:none;stroke:#000000;stroke-width:1.5;stroke-linecap:round;stroke-linejoin:round;stroke-miterlimit:10;stroke-opacity:1;stroke-dasharray:none"
         d="m 249.71183,333.31676 c 0.23,3.01 0.46,6.17 0.69,9.03 0.23,2.86 0.47,5.88 0.7,8.12 0.23,2.23 0.46,3.71 0.69,5.29 0.23,1.59 0.47,2.92 0.7,4.22 0.23,1.31 0.46,2.47 0.69,3.6 0.24,1.13 0.47,2.16 0.7,3.17 0.23,1 0.46,1.95 0.69,2.86 0.24,0.91 0.47,1.78 0.7,2.62 0.23,0.84 0.46,1.64 0.7,2.42 0.23,0.78 0.46,1.53 0.69,2.26 0.23,0.73 0.46,1.43 0.7,2.12 0.23,0.68 0.46,1.35 0.69,2 0.23,0.65 0.47,1.27 0.7,1.89 0.23,0.62 0.46,1.21 0.69,1.8 0.24,0.59 0.47,1.16 0.7,1.72 0.23,0.55 0.46,1.1 0.69,1.63 0.24,0.54 0.47,1.06 0.7,1.58 0.23,0.51 0.46,1.01 0.7,1.5 0.23,0.49 0.46,0.98 0.69,1.45 0.23,0.47 0.46,0.94 0.7,1.39 0.23,0.46 0.46,0.91 0.69,1.35 0.23,0.44 0.47,0.87 0.7,1.29 0.23,0.43 0.46,0.84 0.69,1.25 0.24,0.41 0.47,0.82 0.7,1.21 0.23,0.4 0.46,0.79 0.69,1.17 0.24,0.39 0.47,0.76 0.7,1.14 0.23,0.37 0.46,0.73 0.7,1.09 0.23,0.36 0.46,0.72 0.69,1.07 0.23,0.35 0.46,0.69 0.7,1.03 0.23,0.34 0.46,0.67 0.69,1 0.23,0.33 0.47,0.65 0.7,0.97 0.23,0.32 0.46,0.64 0.69,0.95 0.23,0.31 0.47,0.61 0.7,0.92 0.23,0.3 0.46,0.59 0.69,0.89 0.24,0.29 0.47,0.58 0.7,0.86 0.23,0.29 0.46,0.57 0.7,0.85 0.23,0.28 0.46,0.55 0.69,0.82 0.23,0.27 0.46,0.53 0.7,0.8 0.23,0.26 0.46,0.52 0.69,0.77 0.23,0.26 0.47,0.51 0.7,0.76 0.23,0.25 0.46,0.49 0.69,0.73 0.23,0.25 0.47,0.48 0.7,0.72 0.23,0.24 0.46,0.47 0.69,0.7 0.24,0.23 0.47,0.45 0.7,0.68 0.23,0.22 0.46,0.44 0.7,0.66 0.23,0.21 0.46,0.43 0.69,0.64 0.23,0.21 0.46,0.42 0.7,0.63 0.23,0.2 0.46,0.41 0.69,0.61 0.23,0.2 0.47,0.4 0.7,0.59 0.23,0.2 0.46,0.39 0.69,0.58 0.23,0.19 0.47,0.38 0.7,0.56 0.23,0.19 0.46,0.37 0.69,0.55 0.24,0.18 0.47,0.36 0.7,0.54 0.23,0.17 0.46,0.34 0.69,0.51 0.24,0.18 0.47,0.34 0.7,0.51 0.23,0.17 0.46,0.33 0.7,0.49 0.23,0.16 0.46,0.32 0.69,0.48 0.23,0.16 0.47,0.31 0.7,0.47 0.23,0.15 0.46,0.3 0.69,0.45 0.23,0.15 0.47,0.29 0.7,0.44 0.23,0.14 0.46,0.29 0.69,0.43 0.24,0.14 0.47,0.28 0.7,0.41 0.23,0.14 0.46,0.27 0.69,0.41 0.24,0.13 0.47,0.26 0.7,0.39 0.23,0.13 0.46,0.26 0.7,0.38 0.23,0.13 0.46,0.25 0.69,0.37 0.23,0.12 0.46,0.24 0.7,0.36 0.23,0.12 0.46,0.23 0.69,0.35 0.23,0.11 0.47,0.23 0.7,0.34 0.23,0.11 0.46,0.22 0.69,0.32 0.24,0.11 0.47,0.22 0.7,0.32 0.23,0.1 0.46,0.21 0.69,0.31 0.24,0.1 0.47,0.2 0.7,0.29 0.23,0.1 0.46,0.2 0.7,0.29 0.23,0.09 0.46,0.19 0.69,0.28 0.23,0.09 0.46,0.18 0.7,0.27 0.23,0.08 0.46,0.17 0.69,0.25 0.23,0.09 0.47,0.17 0.7,0.25 0.23,0.09 0.46,0.17 0.69,0.24 0.24,0.08 0.47,0.16 0.7,0.24 0.23,0.07 0.46,0.15 0.69,0.22 0.24,0.07 0.47,0.14 0.7,0.21 0.23,0.07 0.46,0.14 0.7,0.21 0.23,0.06 0.46,0.13 0.69,0.19 0.23,0.07 0.46,0.13 0.7,0.19 0.23,0.06 0.46,0.12 0.69,0.18 0.23,0.06 0.47,0.12 0.7,0.17 0.23,0.06 0.46,0.11 0.69,0.17 0.23,0.05 0.47,0.1 0.7,0.15 0.23,0.05 0.46,0.1 0.69,0.15 0.24,0.05 0.47,0.1 0.7,0.14 0.23,0.05 0.46,0.09 0.7,0.14 0.23,0.04 0.46,0.08 0.69,0.12 0.23,0.04 0.46,0.08 0.7,0.12 0.23,0.04 0.46,0.07 0.69,0.11 0.23,0.03 0.47,0.07 0.7,0.1 0.23,0.04 0.46,0.07 0.69,0.1 0.23,0.03 0.47,0.06 0.7,0.09 0.23,0.03 0.46,0.05 0.69,0.08 0.24,0.03 0.47,0.05 0.7,0.07 0.23,0.03 0.46,0.05 0.7,0.07 0.23,0.02 0.46,0.04 0.69,0.06 0.23,0.02 0.46,0.04 0.7,0.06 0.23,0.01 0.46,0.03 0.69,0.05 0.23,0.01 0.47,0.02 0.7,0.04 0.23,0.01 0.46,0.02 0.69,0.03 0.23,0.01 0.47,0.02 0.7,0.03 0.23,0.01 0.46,0.02 0.69,0.02 0.24,0.01 0.47,0.01 0.7,0.02 0.23,0 0.46,0 0.69,0.01 0.24,0 0.47,0 0.7,0 0.23,0 0.46,0 0.7,0 0.23,-0.01 0.46,-0.01 0.69,-0.01 0.23,-0.01 0.47,-0.01 0.7,-0.02 0.23,0 0.46,-0.01 0.69,-0.02 0.23,-0.01 0.47,-0.02 0.7,-0.03 0.23,-0.01 0.46,-0.02 0.69,-0.03 0.24,-0.01 0.47,-0.02 0.7,-0.04 0.23,-0.01 0.46,-0.03 0.69,-0.04 0.24,-0.02 0.47,-0.03 0.7,-0.05 0.23,-0.02 0.46,-0.04 0.7,-0.06 0.23,-0.02 0.46,-0.04 0.69,-0.06 0.23,-0.02 0.47,-0.04 0.7,-0.07 0.23,-0.02 0.46,-0.04 0.69,-0.07 0.23,-0.02 0.47,-0.05 0.7,-0.08 0.23,-0.02 0.46,-0.05 0.69,-0.08 0.24,-0.03 0.47,-0.06 0.7,-0.09 0.23,-0.03 0.46,-0.06 0.69,-0.09 0.24,-0.03 0.47,-0.06 0.7,-0.1 0.23,-0.03 0.46,-0.07 0.7,-0.1 0.23,-0.04 0.46,-0.07 0.69,-0.11 0.23,-0.04 0.46,-0.08 0.7,-0.12 0.23,-0.03 0.46,-0.07 0.69,-0.12 0.23,-0.04 0.47,-0.08 0.7,-0.12 0.23,-0.04 0.46,-0.08 0.69,-0.13 0.24,-0.04 0.47,-0.09 0.7,-0.13 0.23,-0.05 0.46,-0.09 0.69,-0.14 0.24,-0.05 0.47,-0.1 0.7,-0.15 0.23,-0.04 0.46,-0.09 0.7,-0.14 0.23,-0.05 0.46,-0.11 0.69,-0.16 0.23,-0.05 0.46,-0.1 0.7,-0.15 0.23,-0.06 0.46,-0.11 0.69,-0.17 0.23,-0.05 0.47,-0.11 0.7,-0.16 0.23,-0.06 0.46,-0.12 0.69,-0.18 0.24,-0.05 0.47,-0.11 0.7,-0.17 0.23,-0.06 0.46,-0.12 0.69,-0.18 0.24,-0.06 0.47,-0.13 0.7,-0.19 0.23,-0.06 0.46,-0.12 0.7,-0.19 0.23,-0.06 0.46,-0.13 0.69,-0.19 0.23,-0.07 0.46,-0.13 0.7,-0.2 0.23,-0.07 0.46,-0.14 0.69,-0.2 0.23,-0.07 0.47,-0.14 0.7,-0.21 0.23,-0.07 0.46,-0.14 0.69,-0.21 0.23,-0.07 0.47,-0.15 0.7,-0.22 0.23,-0.07 0.46,-0.14 0.69,-0.22 0.24,-0.07 0.47,-0.15 0.7,-0.22 0.23,-0.08 0.46,-0.15 0.7,-0.23 0.23,-0.08 0.46,-0.15 0.69,-0.23 0.23,-0.08 0.46,-0.16 0.7,-0.24 0.23,-0.08 0.46,-0.16 0.69,-0.24 0.23,-0.08 0.47,-0.16 0.7,-0.24 0.23,-0.08 0.46,-0.17 0.69,-0.25 0.23,-0.08 0.47,-0.17 0.7,-0.25 0.23,-0.08 0.46,-0.17 0.69,-0.26 0.24,-0.08 0.47,-0.17 0.7,-0.26 0.23,-0.08 0.46,-0.17 0.7,-0.26 0.23,-0.09 0.46,-0.18 0.69,-0.26 0.23,-0.09 0.46,-0.18 0.7,-0.28 0.23,-0.09 0.46,-0.18 0.69,-0.27 0.23,-0.09 0.47,-0.18 0.7,-0.28 0.23,-0.09 0.46,-0.18 0.69,-0.28 0.23,-0.09 0.47,-0.19 0.7,-0.28 0.23,-0.1 0.46,-0.2 0.69,-0.29 0.24,-0.1 0.47,-0.2 0.7,-0.29 0.23,-0.1 0.46,-0.2 0.69,-0.3 0.24,-0.1 0.47,-0.2 0.7,-0.3 0.23,-0.1 0.46,-0.2 0.7,-0.3 0.23,-0.1 0.46,-0.2 0.69,-0.31 0.23,-0.1 0.47,-0.2 0.7,-0.3 0.23,-0.11 0.46,-0.21 0.69,-0.32 0.23,-0.1 0.47,-0.21 0.7,-0.31 0.23,-0.11 0.46,-0.21 0.69,-0.32 0.24,-0.11 0.47,-0.21 0.7,-0.32 0.23,-0.11 0.46,-0.22 0.69,-0.33 0.24,-0.11 0.47,-0.22 0.7,-0.33 0.23,-0.11 0.46,-0.22 0.7,-0.33 0.23,-0.11 0.46,-0.22 0.69,-0.33 0.23,-0.11 0.46,-0.22 0.7,-0.34 0.23,-0.11 0.46,-0.22 0.69,-0.34 0.23,-0.11 0.47,-0.23 0.7,-0.34 0.23,-0.12 0.46,-0.23 0.69,-0.35 0.24,-0.11 0.47,-0.23 0.7,-0.35 0.23,-0.11 0.46,-0.23 0.69,-0.35 0.24,-0.11 0.47,-0.23 0.7,-0.35 0.23,-0.12 0.46,-0.24 0.7,-0.36 0.23,-0.12 0.46,-0.24 0.69,-0.36 0.23,-0.12 0.46,-0.24 0.7,-0.36 0.23,-0.12 0.46,-0.24 0.69,-0.36 0.23,-0.13 0.47,-0.25 0.7,-0.37 0.23,-0.13 0.46,-0.25 0.69,-0.37 0.24,-0.13 0.47,-0.25 0.7,-0.37 0.23,-0.13 0.46,-0.25 0.69,-0.38 0.24,-0.12 0.47,-0.25 0.7,-0.38 0.23,-0.12 0.46,-0.25 0.7,-0.38 0.23,-0.12 0.46,-0.25 0.69,-0.38 0.23,-0.13 0.46,-0.25 0.7,-0.38 0.23,-0.13 0.46,-0.26 0.69,-0.39 0.23,-0.13 0.47,-0.26 0.7,-0.39 0.23,-0.13 0.46,-0.26 0.69,-0.39 0.23,-0.13 0.47,-0.26 0.7,-0.39 0.23,-0.13 0.46,-0.26 0.69,-0.4 0.24,-0.13 0.47,-0.26 0.7,-0.39 0.23,-0.14 0.46,-0.27 0.7,-0.4 0.23,-0.13 0.46,-0.27 0.69,-0.4 0.23,-0.14 0.46,-0.27 0.7,-0.4 0.23,-0.14 0.46,-0.27 0.69,-0.41 0.23,-0.13 0.47,-0.27 0.7,-0.4 0.23,-0.14 0.46,-0.28 0.69,-0.41 0.23,-0.14 0.47,-0.27 0.7,-0.41 0.23,-0.14 0.46,-0.27 0.69,-0.41 0.24,-0.14 0.47,-0.28 0.7,-0.41 0.23,-0.14 0.46,-0.28 0.7,-0.42 0.23,-0.14 0.46,-0.27 0.69,-0.41 0.23,-0.14 0.46,-0.28 0.7,-0.42 0.23,-0.14 0.46,-0.28 0.69,-0.42 0.23,-0.14 0.47,-0.28 0.7,-0.42 0.23,-0.14 0.46,-0.28 0.69,-0.42 0.23,-0.14 0.47,-0.28 0.7,-0.42 0.23,-0.14 0.46,-0.28 0.69,-0.42 0.24,-0.14 0.47,-0.28 0.7,-0.42 0.23,-0.14 0.46,-0.28 0.69,-0.43 0.24,-0.14 0.47,-0.28 0.7,-0.42 0.23,-0.14 0.46,-0.28 0.7,-0.42 0.23,-0.15 0.46,-0.29 0.69,-0.43 0.23,-0.14 0.47,-0.28 0.7,-0.43 0.23,-0.14 0.46,-0.28 0.69,-0.42 0.23,-0.15 0.47,-0.29 0.7,-0.43 0.23,-0.14 0.46,-0.29 0.69,-0.43 0.24,-0.14 0.47,-0.28 0.7,-0.43 0.23,-0.14 0.46,-0.28 0.69,-0.42 0.24,-0.15 0.47,-0.29 0.7,-0.43 0.23,-0.14 0.46,-0.29 0.7,-0.43 0.23,-0.14 0.46,-0.28 0.69,-0.43 0.23,-0.14 0.46,-0.28 0.7,-0.42 0.23,-0.15 0.46,-0.29 0.69,-0.43 0.23,-0.14 0.47,-0.29 0.7,-0.43 0.23,-0.14 0.46,-0.28 0.69,-0.42 0.24,-0.14 0.47,-0.29 0.7,-0.43 0.23,-0.14 0.46,-0.28 0.69,-0.42 0.24,-0.14 0.47,-0.28 0.7,-0.43 0.23,-0.14 0.46,-0.28 0.7,-0.42 0.23,-0.14 0.46,-0.28 0.69,-0.42 0.23,-0.14 0.46,-0.28 0.7,-0.42 0.23,-0.14 0.46,-0.28 0.69,-0.42 0.23,-0.14 0.47,-0.28 0.7,-0.41 0.23,-0.14 0.46,-0.28 0.69,-0.42 0.24,-0.14 0.47,-0.28 0.7,-0.41 0.23,-0.14 0.46,-0.28 0.69,-0.41 0.24,-0.14 0.47,-0.28 0.7,-0.41 0.23,-0.14 0.46,-0.28 0.7,-0.41 0.23,-0.14 0.46,-0.27 0.69,-0.41 0.23,-0.13 0.46,-0.26 0.7,-0.4 0.23,-0.13 0.46,-0.26 0.69,-0.4 0.23,-0.13 0.47,-0.26 0.7,-0.39 0.23,-0.13 0.46,-0.27 0.69,-0.4 0.23,-0.13 0.47,-0.26 0.7,-0.39 0.23,-0.13 0.46,-0.25 0.69,-0.38 0.24,-0.13 0.47,-0.26 0.7,-0.39 0.23,-0.12 0.46,-0.25 0.7,-0.38 0.23,-0.12 0.46,-0.25 0.69,-0.37 0.23,-0.12 0.46,-0.25 0.7,-0.37 0.23,-0.12 0.46,-0.25 0.69,-0.37 0.23,-0.12 0.47,-0.24 0.7,-0.36 0.23,-0.12 0.46,-0.24 0.69,-0.36 0.23,-0.11 0.47,-0.23 0.7,-0.35 0.23,-0.11 0.46,-0.23 0.69,-0.35 0.24,-0.11 0.47,-0.22 0.7,-0.34 0.23,-0.11 0.46,-0.22 0.7,-0.33 0.23,-0.11 0.46,-0.22 0.69,-0.33 0.23,-0.11 0.46,-0.22 0.7,-0.32 0.23,-0.11 0.46,-0.22 0.69,-0.32 0.23,-0.11 0.47,-0.21 0.7,-0.31 0.23,-0.1 0.46,-0.21 0.69,-0.31 0.23,-0.1 0.47,-0.19 0.7,-0.29 0.23,-0.1 0.46,-0.19 0.69,-0.29 0.24,-0.09 0.47,-0.19 0.7,-0.28 0.23,-0.09 0.46,-0.18 0.69,-0.27 0.24,-0.09 0.47,-0.18 0.7,-0.27 0.23,-0.09 0.46,-0.17 0.7,-0.26 0.23,-0.08 0.46,-0.16 0.69,-0.24 0.23,-0.08 0.47,-0.16 0.7,-0.24 0.23,-0.08 0.46,-0.16 0.69,-0.23 0.23,-0.08 0.47,-0.15 0.7,-0.22 0.23,-0.07 0.46,-0.14 0.69,-0.21 0.24,-0.07 0.47,-0.14 0.7,-0.2 0.23,-0.07 0.46,-0.13 0.69,-0.19 0.24,-0.06 0.47,-0.12 0.7,-0.18 0.23,-0.06 0.46,-0.11 0.7,-0.17 0.23,-0.05 0.46,-0.1 0.69,-0.15 0.23,-0.06 0.47,-0.1 0.7,-0.15 0.23,-0.05 0.46,-0.09 0.69,-0.13 0.23,-0.05 0.47,-0.09 0.7,-0.13 0.23,-0.04 0.46,-0.07 0.69,-0.11 0.24,-0.03 0.47,-0.07 0.7,-0.1 0.23,-0.03 0.46,-0.06 0.69,-0.08 0.24,-0.03 0.47,-0.05 0.7,-0.07 0.23,-0.03 0.46,-0.05 0.7,-0.06 0.23,-0.02 0.46,-0.04 0.69,-0.05 0.23,-0.02 0.46,-0.03 0.7,-0.04 0.23,0 0.46,-0.01 0.69,-0.02 0.23,0 0.47,0 0.7,0 0.23,0 0.46,0 0.69,0 0.24,0.01 0.47,0.02 0.7,0.02 0.23,0.01 0.46,0.03 0.69,0.04 0.24,0.01 0.47,0.03 0.7,0.05 0.23,0.02 0.46,0.04 0.7,0.06 0.23,0.02 0.46,0.05 0.69,0.08 0.23,0.03 0.46,0.06 0.7,0.09 0.23,0.03 0.46,0.07 0.69,0.11 0.23,0.03 0.47,0.07 0.7,0.12 0.23,0.04 0.46,0.08 0.69,0.13 0.23,0.05 0.47,0.1 0.7,0.15 0.23,0.05 0.46,0.11 0.69,0.16 0.24,0.06 0.47,0.12 0.7,0.18 0.23,0.06 0.46,0.13 0.7,0.19 0.23,0.07 0.46,0.14 0.69,0.21 0.23,0.07 0.46,0.14 0.7,0.22 0.23,0.08 0.46,0.15 0.69,0.23 0.23,0.09 0.47,0.17 0.7,0.25 0.23,0.09 0.46,0.18 0.69,0.27 0.23,0.09 0.47,0.18 0.7,0.27 0.23,0.1 0.46,0.2 0.69,0.29 0.24,0.1 0.47,0.21 0.7,0.31 0.23,0.1 0.46,0.21 0.7,0.32 0.23,0.11 0.46,0.22 0.69,0.33 0.23,0.11 0.46,0.23 0.7,0.34 0.23,0.12 0.46,0.24 0.69,0.36 0.23,0.12 0.47,0.25 0.7,0.37 0.23,0.13 0.46,0.26 0.69,0.39 0.23,0.13 0.47,0.26 0.7,0.39 0.23,0.14 0.46,0.28 0.69,0.41 0.24,0.14 0.47,0.28 0.7,0.42 0.23,0.15 0.46,0.29 0.69,0.44 0.24,0.15 0.47,0.29 0.7,0.44 0.23,0.15 0.46,0.31 0.7,0.46 0.23,0.16 0.46,0.31 0.69,0.47 0.23,0.16 0.47,0.32 0.7,0.48 0.23,0.16 0.46,0.33 0.69,0.49 0.23,0.17 0.47,0.34 0.7,0.51 0.23,0.17 0.46,0.34 0.69,0.51 0.24,0.17 0.47,0.35 0.7,0.52 0.23,0.18 0.46,0.36 0.69,0.54 0.24,0.18 0.47,0.36 0.7,0.54 0.23,0.19 0.46,0.37 0.7,0.56 0.23,0.19 0.46,0.37 0.69,0.56 0.23,0.19 0.47,0.39 0.7,0.58 0.23,0.19 0.46,0.39 0.69,0.58 0.23,0.2 0.47,0.4 0.7,0.6 0.23,0.2 0.46,0.4 0.69,0.6 0.24,0.2 0.47,0.41 0.7,0.61 0.23,0.21 0.46,0.42 0.69,0.63 0.24,0.2 0.47,0.41 0.7,0.63 0.23,0.21 0.46,0.42 0.7,0.63 0.23,0.22 0.46,0.43 0.69,0.65 0.23,0.22 0.46,0.44 0.7,0.66 0.23,0.22 0.46,0.44 0.69,0.66 0.23,0.22 0.47,0.45 0.7,0.67 0.23,0.23 0.46,0.45 0.69,0.68 0.24,0.23 0.47,0.46 0.7,0.69 0.23,0.23 0.46,0.46 0.69,0.69 0.24,0.24 0.47,0.47 0.7,0.71 0.23,0.23 0.46,0.47 0.7,0.71 0.23,0.23 0.46,0.47 0.69,0.71 0.23,0.24 0.46,0.48 0.7,0.73 0.23,0.24 0.46,0.48 0.69,0.73 0.23,0.24 0.47,0.49 0.7,0.73 0.23,0.25 0.46,0.5 0.69,0.75 0.24,0.25 0.47,0.5 0.7,0.75 0.23,0.25 0.46,0.5 0.69,0.75 0.24,0.26 0.47,0.51 0.7,0.77 0.23,0.25 0.46,0.51 0.7,0.77 0.23,0.25 0.46,0.51 0.69,0.77 0.23,0.26 0.46,0.52 0.7,0.78 0.23,0.27 0.46,0.53 0.69,0.79 0.23,0.27 0.47,0.53 0.7,0.8 0.23,0.26 0.46,0.53 0.69,0.79 0.23,0.27 0.47,0.54 0.7,0.81 0.23,0.27 0.46,0.54 0.69,0.81 0.24,0.27 0.47,0.54 0.7,0.81 0.23,0.28 0.46,0.55 0.7,0.83 0.23,0.27 0.46,0.55 0.69,0.82 0.23,0.28 0.46,0.56 0.7,0.83 0.23,0.28 0.46,0.56 0.69,0.84 0.23,0.28 0.47,0.56 0.7,0.84 0.23,0.28 0.46,0.57 0.69,0.85 0.23,0.28 0.47,0.57 0.7,0.85 0.23,0.28 0.46,0.57 0.69,0.86 0.24,0.28 0.47,0.57 0.7,0.86 0.23,0.29 0.46,0.57 0.69,0.86 0.24,0.29 0.47,0.58 0.7,0.87 0.23,0.3 0.46,0.59 0.7,0.88 0.23,0.29 0.46,0.58 0.69,0.88 0.23,0.29 0.47,0.59 0.7,0.88 0.23,0.3 0.46,0.59 0.69,0.89 0.23,0.3 0.47,0.6 0.7,0.89 0.23,0.3 0.46,0.6 0.69,0.9 0.24,0.3 0.47,0.6 0.7,0.9 0.23,0.3 0.46,0.61 0.69,0.91 0.24,0.3 0.47,0.6 0.7,0.91 0.23,0.3 0.46,0.61 0.7,0.91 0.23,0.31 0.46,0.61 0.69,0.92 0.23,0.31 0.47,0.61 0.7,0.92 0.23,0.31 0.46,0.62 0.69,0.93 0.23,0.31 0.47,0.62 0.7,0.93 0.23,0.31 0.46,0.62 0.69,0.93 0.24,0.31 0.47,0.62 0.7,0.94 0.23,0.31 0.46,0.62 0.69,0.94 0.24,0.31 0.47,0.63 0.7,0.94 0.23,0.32 0.46,0.63 0.7,0.95 0.23,0.32 0.46,0.64 0.69,0.95 0.23,0.32 0.46,0.64 0.7,0.96 0.23,0.32 0.46,0.64 0.69,0.96 0.23,0.32 0.47,0.64 0.7,0.96 0.23,0.32 0.46,0.64 0.69,0.97 0.24,0.32 0.47,0.64 0.7,0.97 0.23,0.32 0.46,0.65 0.69,0.97 0.24,0.33 0.47,0.65 0.7,0.98 0.23,0.32 0.46,0.65 0.7,0.98 0.23,0.32 0.46,0.65 0.69,0.98 0.23,0.33 0.46,0.66 0.7,0.99 0.23,0.33 0.46,0.66 0.69,0.99 0.23,0.33 0.47,0.66 0.7,0.99 0.23,0.33 0.46,0.66 0.69,1 0.24,0.33 0.47,0.66 0.7,1 0.23,0.33 0.46,0.66 0.69,1 0.24,0.33 0.47,0.67 0.7,1.01 0.23,0.33 0.46,0.67 0.7,1 0.23,0.34 0.46,0.68 0.69,1.02 0.23,0.33 0.46,0.67 0.7,1.01 0.23,0.34 0.46,0.68 0.69,1.02 0.23,0.34 0.47,0.68 0.7,1.02 0.23,0.34 0.46,0.68 0.69,1.03 0.23,0.34 0.47,0.68 0.7,1.02 0.23,0.35 0.46,0.69 0.69,1.03 0.24,0.35 0.47,0.69 0.7,1.04 0.23,0.34 0.46,0.69 0.7,1.03 0.23,0.35 0.46,0.7 0.69,1.04 0.23,0.35 0.46,0.7 0.7,1.04 0.23,0.35 0.46,0.7 0.69,1.05 0.23,0.35 0.47,0.7 0.7,1.05 0.23,0.35 0.46,0.7 0.69,1.05 0.23,0.35 0.47,0.7 0.7,1.05 0.23,0.35 0.46,0.7 0.69,1.06 0.24,0.35 0.47,0.7 0.7,1.06 0.23,0.35 0.46,0.7 0.7,1.06 0.23,0.35 0.46,0.71 0.69,1.06 0.23,0.36 0.46,0.71 0.7,1.07 0.23,0.35 0.46,0.71 0.69,1.07 0.23,0.36 0.47,0.71 0.7,1.07 0.23,0.36 0.46,0.72 0.69,1.08 0.23,0.35 0.47,0.71 0.7,1.07 0.23,0.36 0.46,0.72 0.69,1.08 0.24,0.36 0.47,0.73 0.7,1.09 0.23,0.36 0.46,0.72 0.69,1.08 0.24,0.36 0.47,0.73 0.7,1.09 0.23,0.36 0.46,0.73 0.7,1.09 0.23,0.37 0.46,0.73 0.69,1.09 0.23,0.37 0.47,0.73 0.7,1.1 0.23,0.37 0.46,0.73 0.69,1.1 0.23,0.37 0.47,0.73 0.7,1.1 0.23,0.37 0.46,0.74 0.69,1.1 0.24,0.37 0.47,0.74 0.7,1.11 0.23,0.37 0.46,0.74 0.69,1.11 0.24,0.37 0.47,0.74 0.7,1.11 0.23,0.37 0.46,0.74 0.7,1.11 0.23,0.37 0.46,0.75 0.69,1.12 0.23,0.37 0.47,0.74 0.7,1.12 0.23,0.37 0.46,0.74 0.69,1.12 0.23,0.37 0.47,0.75 0.7,1.12 0.23,0.38 0.46,0.75 0.69,1.13 0.24,0.37 0.47,0.75 0.7,1.12 0.23,0.38 0.46,0.76 0.69,1.13 0.24,0.38 0.47,0.76 0.7,1.14 0.23,0.38 0.46,0.75 0.7,1.13 0.23,0.38 0.46,0.76 0.69,1.14 0.23,0.38 0.46,0.76 0.7,1.14 0.23,0.38 0.46,0.76 0.69,1.14 0.23,0.38 0.47,0.76 0.7,1.15 0.23,0.38 0.46,0.76 0.69,1.14 0.24,0.39 0.47,0.77 0.7,1.15 0.23,0.39 0.46,0.77 0.69,1.15 0.24,0.39 0.47,0.77 0.7,1.16 0.23,0.38 0.46,0.77 0.7,1.15 0.23,0.39 0.46,0.78 0.69,1.16 0.23,0.39 0.46,0.77 0.7,1.16 0.23,0.39 0.46,0.78 0.69,1.16 0.23,0.39 0.47,0.78 0.7,1.17 0.23,0.39 0.46,0.78 0.69,1.17 0.23,0.39 0.47,0.78 0.7,1.17 0.23,0.39 0.46,0.78 0.69,1.17 0.24,0.39 0.47,0.78 0.7,1.17 0.23,0.39 0.46,0.79 0.7,1.18 0.23,0.39 0.46,0.78 0.69,1.18 0.23,0.39 0.46,0.78 0.7,1.18 0.23,0.39 0.46,0.79 0.69,1.18 0.23,0.4 0.47,0.79 0.7,1.19 0.23,0.39 0.46,0.79 0.69,1.18 0.23,0.4 0.47,0.79 0.7,1.19 0.23,0.4 0.46,0.8 0.69,1.19 0.24,0.4 0.47,0.8 0.7,1.2 0.23,0.39 0.46,0.79 0.7,1.19"
         inkscape:connector-curvature="0" />
      <path
         id="path3018"
         style="fill:none;stroke:#000000;stroke-width:1.5;stroke-linecap:round;stroke-linejoin:round;stroke-miterlimit:10;stroke-opacity:1;stroke-dasharray:none"
         d="m 249.71183,333.31676 c 0.23,-3 0.46,-6.16 0.69,-9.02 0.23,-2.86 0.47,-5.88 0.7,-8.12 0.23,-2.23 0.46,-3.71 0.69,-5.3 0.23,-1.58 0.47,-2.91 0.7,-4.22 0.23,-1.3 0.46,-2.46 0.69,-3.59 0.24,-1.13 0.47,-2.17 0.7,-3.17 0.23,-1.01 0.46,-1.95 0.69,-2.86 0.24,-0.91 0.47,-1.78 0.7,-2.62 0.23,-0.84 0.46,-1.64 0.7,-2.42 0.23,-0.78 0.46,-1.53 0.69,-2.26 0.23,-0.73 0.46,-1.43 0.7,-2.12 0.23,-0.69 0.46,-1.35 0.69,-2 0.23,-0.65 0.47,-1.28 0.7,-1.89 0.23,-0.62 0.46,-1.22 0.69,-1.8 0.24,-0.59 0.47,-1.16 0.7,-1.72 0.23,-0.56 0.46,-1.1 0.69,-1.64 0.24,-0.53 0.47,-1.05 0.7,-1.57 0.23,-0.51 0.46,-1.01 0.7,-1.5 0.23,-0.5 0.46,-0.98 0.69,-1.45 0.23,-0.48 0.46,-0.94 0.7,-1.39 0.23,-0.46 0.46,-0.91 0.69,-1.35 0.23,-0.44 0.47,-0.87 0.7,-1.29 0.23,-0.43 0.46,-0.84 0.69,-1.25 0.24,-0.41 0.47,-0.82 0.7,-1.21 0.23,-0.4 0.46,-0.79 0.69,-1.17 0.24,-0.39 0.47,-0.77 0.7,-1.14 0.23,-0.37 0.46,-0.73 0.7,-1.1 0.23,-0.36 0.46,-0.71 0.69,-1.06 0.23,-0.35 0.46,-0.69 0.7,-1.03 0.23,-0.34 0.46,-0.67 0.69,-1 0.23,-0.33 0.47,-0.66 0.7,-0.98 0.23,-0.31 0.46,-0.63 0.69,-0.94 0.23,-0.31 0.47,-0.62 0.7,-0.92 0.23,-0.3 0.46,-0.6 0.69,-0.89 0.24,-0.29 0.47,-0.58 0.7,-0.87 0.23,-0.28 0.46,-0.56 0.7,-0.84 0.23,-0.28 0.46,-0.55 0.69,-0.82 0.23,-0.27 0.46,-0.54 0.7,-0.8 0.23,-0.26 0.46,-0.52 0.69,-0.77 0.23,-0.26 0.47,-0.51 0.7,-0.76 0.23,-0.25 0.46,-0.49 0.69,-0.74 0.23,-0.24 0.47,-0.48 0.7,-0.71 0.23,-0.24 0.46,-0.47 0.69,-0.7 0.24,-0.23 0.47,-0.46 0.7,-0.68 0.23,-0.22 0.46,-0.44 0.7,-0.66 0.23,-0.22 0.46,-0.43 0.69,-0.64 0.23,-0.21 0.46,-0.42 0.7,-0.63 0.23,-0.21 0.46,-0.41 0.69,-0.61 0.23,-0.2 0.47,-0.4 0.7,-0.59 0.23,-0.2 0.46,-0.39 0.69,-0.58 0.23,-0.19 0.47,-0.38 0.7,-0.57 0.23,-0.18 0.46,-0.36 0.69,-0.54 0.24,-0.18 0.47,-0.36 0.7,-0.54 0.23,-0.17 0.46,-0.35 0.69,-0.52 0.24,-0.17 0.47,-0.34 0.7,-0.5 0.23,-0.17 0.46,-0.33 0.7,-0.49 0.23,-0.17 0.46,-0.33 0.69,-0.48 0.23,-0.16 0.47,-0.32 0.7,-0.47 0.23,-0.15 0.46,-0.3 0.69,-0.45 0.23,-0.15 0.47,-0.3 0.7,-0.44 0.23,-0.15 0.46,-0.29 0.69,-0.43 0.24,-0.14 0.47,-0.28 0.7,-0.42 0.23,-0.13 0.46,-0.27 0.69,-0.4 0.24,-0.13 0.47,-0.26 0.7,-0.39 0.23,-0.13 0.46,-0.26 0.7,-0.38 0.23,-0.13 0.46,-0.25 0.69,-0.37 0.23,-0.12 0.46,-0.24 0.7,-0.36 0.23,-0.12 0.46,-0.24 0.69,-0.35 0.23,-0.11 0.47,-0.23 0.7,-0.34 0.23,-0.11 0.46,-0.22 0.69,-0.33 0.24,-0.1 0.47,-0.21 0.7,-0.31 0.23,-0.11 0.46,-0.21 0.69,-0.31 0.24,-0.1 0.47,-0.2 0.7,-0.3 0.23,-0.09 0.46,-0.19 0.7,-0.28 0.23,-0.1 0.46,-0.19 0.69,-0.28 0.23,-0.09 0.46,-0.18 0.7,-0.27 0.23,-0.09 0.46,-0.17 0.69,-0.26 0.23,-0.08 0.47,-0.16 0.7,-0.25 0.23,-0.08 0.46,-0.16 0.69,-0.24 0.24,-0.07 0.47,-0.15 0.7,-0.23 0.23,-0.07 0.46,-0.15 0.69,-0.22 0.24,-0.07 0.47,-0.14 0.7,-0.21 0.23,-0.07 0.46,-0.14 0.7,-0.21 0.23,-0.07 0.46,-0.13 0.69,-0.2 0.23,-0.06 0.46,-0.12 0.7,-0.18 0.23,-0.07 0.46,-0.13 0.69,-0.18 0.23,-0.06 0.47,-0.12 0.7,-0.18 0.23,-0.05 0.46,-0.11 0.69,-0.16 0.23,-0.05 0.47,-0.11 0.7,-0.16 0.23,-0.05 0.46,-0.1 0.69,-0.14 0.24,-0.05 0.47,-0.1 0.7,-0.15 0.23,-0.04 0.46,-0.08 0.7,-0.13 0.23,-0.04 0.46,-0.08 0.69,-0.12 0.23,-0.04 0.46,-0.08 0.7,-0.12 0.23,-0.04 0.46,-0.08 0.69,-0.11 0.23,-0.04 0.47,-0.07 0.7,-0.1 0.23,-0.04 0.46,-0.07 0.69,-0.1 0.23,-0.03 0.47,-0.06 0.7,-0.09 0.23,-0.03 0.46,-0.06 0.69,-0.08 0.24,-0.03 0.47,-0.05 0.7,-0.08 0.23,-0.02 0.46,-0.04 0.7,-0.06 0.23,-0.03 0.46,-0.05 0.69,-0.07 0.23,-0.01 0.46,-0.03 0.7,-0.05 0.23,-0.02 0.46,-0.03 0.69,-0.05 0.23,-0.01 0.47,-0.03 0.7,-0.04 0.23,-0.01 0.46,-0.02 0.69,-0.03 0.23,-0.01 0.47,-0.02 0.7,-0.03 0.23,-0.01 0.46,-0.02 0.69,-0.02 0.24,-0.01 0.47,-0.02 0.7,-0.02 0.23,0 0.46,-0.01 0.69,-0.01 0.24,0 0.47,0 0.7,0 0.23,0 0.46,0 0.7,0 0.23,0 0.46,0.01 0.69,0.01 0.23,0 0.47,0.01 0.7,0.02 0.23,0 0.46,0.01 0.69,0.02 0.23,0 0.47,0.01 0.7,0.02 0.23,0.01 0.46,0.02 0.69,0.04 0.24,0.01 0.47,0.02 0.7,0.04 0.23,0.01 0.46,0.02 0.69,0.04 0.24,0.02 0.47,0.03 0.7,0.05 0.23,0.02 0.46,0.04 0.7,0.06 0.23,0.01 0.46,0.04 0.69,0.06 0.23,0.02 0.47,0.04 0.7,0.06 0.23,0.03 0.46,0.05 0.69,0.08 0.23,0.02 0.47,0.05 0.7,0.07 0.23,0.03 0.46,0.06 0.69,0.09 0.24,0.02 0.47,0.05 0.7,0.08 0.23,0.03 0.46,0.07 0.69,0.1 0.24,0.03 0.47,0.06 0.7,0.1 0.23,0.03 0.46,0.06 0.7,0.1 0.23,0.04 0.46,0.07 0.69,0.11 0.23,0.04 0.46,0.07 0.7,0.11 0.23,0.04 0.46,0.08 0.69,0.12 0.23,0.04 0.47,0.08 0.7,0.13 0.23,0.04 0.46,0.08 0.69,0.13 0.24,0.04 0.47,0.08 0.7,0.13 0.23,0.05 0.46,0.09 0.69,0.14 0.24,0.05 0.47,0.09 0.7,0.14 0.23,0.05 0.46,0.1 0.7,0.15 0.23,0.05 0.46,0.1 0.69,0.15 0.23,0.06 0.46,0.11 0.7,0.16 0.23,0.06 0.46,0.11 0.69,0.17 0.23,0.05 0.47,0.11 0.7,0.16 0.23,0.06 0.46,0.12 0.69,0.17 0.24,0.06 0.47,0.12 0.7,0.18 0.23,0.06 0.46,0.12 0.69,0.18 0.24,0.06 0.47,0.12 0.7,0.19 0.23,0.06 0.46,0.12 0.7,0.19 0.23,0.06 0.46,0.13 0.69,0.19 0.23,0.07 0.46,0.13 0.7,0.2 0.23,0.07 0.46,0.13 0.69,0.2 0.23,0.07 0.47,0.14 0.7,0.21 0.23,0.07 0.46,0.14 0.69,0.21 0.23,0.07 0.47,0.14 0.7,0.22 0.23,0.07 0.46,0.14 0.69,0.22 0.24,0.07 0.47,0.14 0.7,0.22 0.23,0.07 0.46,0.15 0.7,0.23 0.23,0.07 0.46,0.15 0.69,0.23 0.23,0.08 0.46,0.16 0.7,0.24 0.23,0.07 0.46,0.15 0.69,0.23 0.23,0.09 0.47,0.17 0.7,0.25 0.23,0.08 0.46,0.16 0.69,0.25 0.23,0.08 0.47,0.16 0.7,0.25 0.23,0.08 0.46,0.17 0.69,0.25 0.24,0.09 0.47,0.18 0.7,0.26 0.23,0.09 0.46,0.18 0.7,0.27 0.23,0.08 0.46,0.17 0.69,0.26 0.23,0.09 0.46,0.18 0.7,0.27 0.23,0.09 0.46,0.19 0.69,0.28 0.23,0.09 0.47,0.18 0.7,0.28 0.23,0.09 0.46,0.18 0.69,0.28 0.23,0.09 0.47,0.19 0.7,0.28 0.23,0.1 0.46,0.19 0.69,0.29 0.24,0.1 0.47,0.19 0.7,0.29 0.23,0.1 0.46,0.2 0.69,0.3 0.24,0.1 0.47,0.2 0.7,0.3 0.23,0.1 0.46,0.2 0.7,0.3 0.23,0.1 0.46,0.2 0.69,0.3 0.23,0.11 0.47,0.21 0.7,0.31 0.23,0.11 0.46,0.21 0.69,0.31 0.23,0.11 0.47,0.21 0.7,0.32 0.23,0.11 0.46,0.21 0.69,0.32 0.24,0.11 0.47,0.21 0.7,0.32 0.23,0.11 0.46,0.22 0.69,0.33 0.24,0.1 0.47,0.21 0.7,0.32 0.23,0.11 0.46,0.22 0.7,0.33 0.23,0.12 0.46,0.23 0.69,0.34 0.23,0.11 0.46,0.22 0.7,0.34 0.23,0.11 0.46,0.22 0.69,0.34 0.23,0.11 0.47,0.22 0.7,0.34 0.23,0.11 0.46,0.23 0.69,0.34 0.24,0.12 0.47,0.24 0.7,0.35 0.23,0.12 0.46,0.24 0.69,0.35 0.24,0.12 0.47,0.24 0.7,0.36 0.23,0.12 0.46,0.24 0.7,0.36 0.23,0.12 0.46,0.24 0.69,0.36 0.23,0.12 0.46,0.24 0.7,0.36 0.23,0.12 0.46,0.24 0.69,0.36 0.23,0.12 0.47,0.25 0.7,0.37 0.23,0.12 0.46,0.25 0.69,0.37 0.24,0.12 0.47,0.25 0.7,0.37 0.23,0.13 0.46,0.25 0.69,0.38 0.24,0.12 0.47,0.25 0.7,0.37 0.23,0.13 0.46,0.26 0.7,0.38 0.23,0.13 0.46,0.26 0.69,0.39 0.23,0.12 0.46,0.25 0.7,0.38 0.23,0.13 0.46,0.26 0.69,0.39 0.23,0.13 0.47,0.26 0.7,0.39 0.23,0.13 0.46,0.26 0.69,0.39 0.23,0.13 0.47,0.26 0.7,0.39 0.23,0.13 0.46,0.26 0.69,0.39 0.24,0.14 0.47,0.27 0.7,0.4 0.23,0.13 0.46,0.27 0.7,0.4 0.23,0.13 0.46,0.27 0.69,0.4 0.23,0.13 0.46,0.27 0.7,0.4 0.23,0.14 0.46,0.27 0.69,0.41 0.23,0.13 0.47,0.27 0.7,0.4 0.23,0.14 0.46,0.27 0.69,0.41 0.23,0.14 0.47,0.27 0.7,0.41 0.23,0.14 0.46,0.27 0.69,0.41 0.24,0.14 0.47,0.27 0.7,0.41 0.23,0.14 0.46,0.28 0.7,0.42 0.23,0.13 0.46,0.27 0.69,0.41 0.23,0.14 0.46,0.28 0.7,0.42 0.23,0.14 0.46,0.28 0.69,0.41 0.23,0.14 0.47,0.28 0.7,0.42 0.23,0.14 0.46,0.28 0.69,0.42 0.23,0.14 0.47,0.28 0.7,0.42 0.23,0.14 0.46,0.29 0.69,0.43 0.24,0.14 0.47,0.28 0.7,0.42 0.23,0.14 0.46,0.28 0.69,0.42 0.24,0.14 0.47,0.29 0.7,0.43 0.23,0.14 0.46,0.28 0.7,0.42 0.23,0.14 0.46,0.29 0.69,0.43 0.23,0.14 0.47,0.28 0.7,0.42 0.23,0.15 0.46,0.29 0.69,0.43 0.23,0.14 0.47,0.29 0.7,0.43 0.23,0.14 0.46,0.28 0.69,0.43 0.24,0.14 0.47,0.28 0.7,0.42 0.23,0.15 0.46,0.29 0.69,0.43 0.24,0.14 0.47,0.29 0.7,0.43 0.23,0.14 0.46,0.28 0.7,0.43 0.23,0.14 0.46,0.28 0.69,0.42 0.23,0.15 0.46,0.29 0.7,0.43 0.23,0.14 0.46,0.29 0.69,0.43 0.23,0.14 0.47,0.28 0.7,0.43 0.23,0.14 0.46,0.28 0.69,0.42 0.24,0.14 0.47,0.28 0.7,0.43 0.23,0.14 0.46,0.28 0.69,0.42 0.24,0.14 0.47,0.28 0.7,0.42 0.23,0.14 0.46,0.29 0.7,0.43 0.23,0.14 0.46,0.28 0.69,0.42 0.23,0.14 0.46,0.28 0.7,0.42 0.23,0.14 0.46,0.28 0.69,0.42 0.23,0.13 0.47,0.27 0.7,0.41 0.23,0.14 0.46,0.28 0.69,0.42 0.24,0.14 0.47,0.27 0.7,0.41 0.23,0.14 0.46,0.28 0.69,0.41 0.24,0.14 0.47,0.28 0.7,0.41 0.23,0.14 0.46,0.27 0.7,0.41 0.23,0.13 0.46,0.27 0.69,0.4 0.23,0.14 0.46,0.27 0.7,0.41 0.23,0.13 0.46,0.26 0.69,0.39 0.23,0.14 0.47,0.27 0.7,0.4 0.23,0.13 0.46,0.26 0.69,0.39 0.23,0.13 0.47,0.26 0.7,0.39 0.23,0.13 0.46,0.26 0.69,0.39 0.24,0.13 0.47,0.26 0.7,0.38 0.23,0.13 0.46,0.26 0.7,0.38 0.23,0.13 0.46,0.25 0.69,0.38 0.23,0.12 0.46,0.25 0.7,0.37 0.23,0.12 0.46,0.24 0.69,0.37 0.23,0.12 0.47,0.24 0.7,0.36 0.23,0.12 0.46,0.24 0.69,0.35 0.23,0.12 0.47,0.24 0.7,0.36 0.23,0.11 0.46,0.23 0.69,0.34 0.24,0.12 0.47,0.23 0.7,0.34 0.23,0.12 0.46,0.23 0.7,0.34 0.23,0.11 0.46,0.22 0.69,0.33 0.23,0.11 0.46,0.22 0.7,0.32 0.23,0.11 0.46,0.21 0.69,0.32 0.23,0.1 0.47,0.21 0.7,0.31 0.23,0.1 0.46,0.2 0.69,0.3 0.23,0.1 0.47,0.2 0.7,0.3 0.23,0.1 0.46,0.19 0.69,0.29 0.24,0.09 0.47,0.19 0.7,0.28 0.23,0.09 0.46,0.18 0.69,0.27 0.24,0.09 0.47,0.18 0.7,0.27 0.23,0.08 0.46,0.17 0.7,0.25 0.23,0.09 0.46,0.17 0.69,0.25 0.23,0.08 0.47,0.16 0.7,0.24 0.23,0.08 0.46,0.15 0.69,0.23 0.23,0.07 0.47,0.15 0.7,0.22 0.23,0.07 0.46,0.14 0.69,0.21 0.24,0.07 0.47,0.13 0.7,0.2 0.23,0.06 0.46,0.13 0.69,0.19 0.24,0.06 0.47,0.12 0.7,0.18 0.23,0.06 0.46,0.11 0.7,0.17 0.23,0.05 0.46,0.1 0.69,0.15 0.23,0.05 0.47,0.1 0.7,0.15 0.23,0.05 0.46,0.09 0.69,0.13 0.23,0.05 0.47,0.09 0.7,0.13 0.23,0.03 0.46,0.07 0.69,0.11 0.24,0.03 0.47,0.06 0.7,0.09 0.23,0.03 0.46,0.06 0.69,0.09 0.24,0.03 0.47,0.05 0.7,0.07 0.23,0.02 0.46,0.04 0.7,0.06 0.23,0.02 0.46,0.04 0.69,0.05 0.23,0.01 0.46,0.02 0.7,0.03 0.23,0.01 0.46,0.02 0.69,0.02 0.23,0.01 0.47,0.01 0.7,0.01 0.23,0 0.46,0 0.69,-0.01 0.24,0 0.47,-0.01 0.7,-0.02 0.23,-0.01 0.46,-0.02 0.69,-0.03 0.24,-0.02 0.47,-0.03 0.7,-0.05 0.23,-0.02 0.46,-0.04 0.7,-0.06 0.23,-0.03 0.46,-0.05 0.69,-0.08 0.23,-0.03 0.46,-0.06 0.7,-0.09 0.23,-0.03 0.46,-0.07 0.69,-0.11 0.23,-0.04 0.47,-0.08 0.7,-0.12 0.23,-0.04 0.46,-0.08 0.69,-0.13 0.23,-0.05 0.47,-0.1 0.7,-0.15 0.23,-0.05 0.46,-0.11 0.69,-0.16 0.24,-0.06 0.47,-0.12 0.7,-0.18 0.23,-0.06 0.46,-0.13 0.7,-0.19 0.23,-0.07 0.46,-0.14 0.69,-0.21 0.23,-0.07 0.46,-0.15 0.7,-0.22 0.23,-0.08 0.46,-0.16 0.69,-0.24 0.23,-0.08 0.47,-0.16 0.7,-0.25 0.23,-0.08 0.46,-0.17 0.69,-0.26 0.23,-0.09 0.47,-0.18 0.7,-0.28 0.23,-0.09 0.46,-0.19 0.69,-0.29 0.24,-0.1 0.47,-0.2 0.7,-0.3 0.23,-0.11 0.46,-0.21 0.7,-0.32 0.23,-0.11 0.46,-0.22 0.69,-0.33 0.23,-0.11 0.46,-0.23 0.7,-0.35 0.23,-0.11 0.46,-0.23 0.69,-0.35 0.23,-0.13 0.47,-0.25 0.7,-0.38 0.23,-0.12 0.46,-0.25 0.69,-0.38 0.23,-0.13 0.47,-0.26 0.7,-0.4 0.23,-0.13 0.46,-0.27 0.69,-0.41 0.24,-0.13 0.47,-0.27 0.7,-0.42 0.23,-0.14 0.46,-0.28 0.69,-0.43 0.24,-0.15 0.47,-0.3 0.7,-0.45 0.23,-0.15 0.46,-0.3 0.7,-0.45 0.23,-0.16 0.46,-0.31 0.69,-0.47 0.23,-0.16 0.47,-0.32 0.7,-0.48 0.23,-0.17 0.46,-0.33 0.69,-0.5 0.23,-0.16 0.47,-0.33 0.7,-0.5 0.23,-0.17 0.46,-0.34 0.69,-0.51 0.24,-0.17 0.47,-0.35 0.7,-0.53 0.23,-0.17 0.46,-0.35 0.69,-0.53 0.24,-0.18 0.47,-0.36 0.7,-0.55 0.23,-0.18 0.46,-0.36 0.7,-0.55 0.23,-0.19 0.46,-0.38 0.69,-0.57 0.23,-0.19 0.47,-0.38 0.7,-0.57 0.23,-0.19 0.46,-0.39 0.69,-0.59 0.23,-0.19 0.47,-0.39 0.7,-0.59 0.23,-0.2 0.46,-0.4 0.69,-0.6 0.24,-0.21 0.47,-0.41 0.7,-0.62 0.23,-0.2 0.46,-0.41 0.69,-0.62 0.24,-0.21 0.47,-0.42 0.7,-0.63 0.23,-0.21 0.46,-0.42 0.7,-0.64 0.23,-0.21 0.46,-0.43 0.69,-0.64 0.23,-0.22 0.46,-0.44 0.7,-0.66 0.23,-0.22 0.46,-0.44 0.69,-0.66 0.23,-0.23 0.47,-0.45 0.7,-0.67 0.23,-0.23 0.46,-0.46 0.69,-0.68 0.24,-0.23 0.47,-0.46 0.7,-0.69 0.23,-0.23 0.46,-0.46 0.69,-0.7 0.24,-0.23 0.47,-0.46 0.7,-0.7 0.23,-0.23 0.46,-0.47 0.7,-0.71 0.23,-0.24 0.46,-0.47 0.69,-0.71 0.23,-0.24 0.46,-0.49 0.7,-0.73 0.23,-0.24 0.46,-0.48 0.69,-0.73 0.23,-0.24 0.47,-0.49 0.7,-0.74 0.23,-0.24 0.46,-0.49 0.69,-0.74 0.24,-0.25 0.47,-0.5 0.7,-0.75 0.23,-0.25 0.46,-0.5 0.69,-0.76 0.24,-0.25 0.47,-0.5 0.7,-0.76 0.23,-0.26 0.46,-0.51 0.7,-0.77 0.23,-0.26 0.46,-0.52 0.69,-0.78 0.23,-0.25 0.46,-0.52 0.7,-0.78 0.23,-0.26 0.46,-0.52 0.69,-0.78 0.23,-0.27 0.47,-0.53 0.7,-0.8 0.23,-0.26 0.46,-0.53 0.69,-0.8 0.23,-0.26 0.47,-0.53 0.7,-0.8 0.23,-0.27 0.46,-0.54 0.69,-0.81 0.24,-0.27 0.47,-0.54 0.7,-0.82 0.23,-0.27 0.46,-0.54 0.7,-0.82 0.23,-0.27 0.46,-0.55 0.69,-0.82 0.23,-0.28 0.46,-0.56 0.7,-0.84 0.23,-0.27 0.46,-0.55 0.69,-0.83 0.23,-0.28 0.47,-0.56 0.7,-0.84 0.23,-0.29 0.46,-0.57 0.69,-0.85 0.23,-0.28 0.47,-0.57 0.7,-0.85 0.23,-0.29 0.46,-0.57 0.69,-0.86 0.24,-0.29 0.47,-0.57 0.7,-0.86 0.23,-0.29 0.46,-0.58 0.69,-0.87 0.24,-0.29 0.47,-0.58 0.7,-0.87 0.23,-0.29 0.46,-0.58 0.7,-0.87 0.23,-0.29 0.46,-0.59 0.69,-0.88 0.23,-0.3 0.47,-0.59 0.7,-0.89 0.23,-0.29 0.46,-0.59 0.69,-0.88 0.23,-0.3 0.47,-0.6 0.7,-0.9 0.23,-0.29 0.46,-0.59 0.69,-0.89 0.24,-0.3 0.47,-0.6 0.7,-0.9 0.23,-0.31 0.46,-0.61 0.69,-0.91 0.24,-0.3 0.47,-0.61 0.7,-0.91 0.23,-0.3 0.46,-0.61 0.7,-0.91 0.23,-0.31 0.46,-0.61 0.69,-0.92 0.23,-0.31 0.47,-0.62 0.7,-0.92 0.23,-0.31 0.46,-0.62 0.69,-0.93 0.23,-0.31 0.47,-0.62 0.7,-0.93 0.23,-0.31 0.46,-0.62 0.69,-0.93 0.24,-0.31 0.47,-0.63 0.7,-0.94 0.23,-0.31 0.46,-0.63 0.69,-0.94 0.24,-0.31 0.47,-0.63 0.7,-0.95 0.23,-0.31 0.46,-0.63 0.7,-0.94 0.23,-0.32 0.46,-0.64 0.69,-0.96 0.23,-0.31 0.46,-0.63 0.7,-0.95 0.23,-0.32 0.46,-0.64 0.69,-0.96 0.23,-0.32 0.47,-0.64 0.7,-0.96 0.23,-0.32 0.46,-0.65 0.69,-0.97 0.24,-0.32 0.47,-0.65 0.7,-0.97 0.23,-0.32 0.46,-0.65 0.69,-0.97 0.24,-0.33 0.47,-0.65 0.7,-0.98 0.23,-0.33 0.46,-0.65 0.7,-0.98 0.23,-0.33 0.46,-0.65 0.69,-0.98 0.23,-0.33 0.46,-0.66 0.7,-0.99 0.23,-0.33 0.46,-0.66 0.69,-0.99 0.23,-0.33 0.47,-0.66 0.7,-0.99 0.23,-0.33 0.46,-0.67 0.69,-1 0.24,-0.33 0.47,-0.66 0.7,-1 0.23,-0.33 0.46,-0.67 0.69,-1 0.24,-0.34 0.47,-0.67 0.7,-1.01 0.23,-0.33 0.46,-0.67 0.7,-1.01 0.23,-0.33 0.46,-0.67 0.69,-1.01 0.23,-0.34 0.46,-0.68 0.7,-1.01 0.23,-0.34 0.46,-0.68 0.69,-1.02 0.23,-0.34 0.47,-0.68 0.7,-1.02 0.23,-0.34 0.46,-0.69 0.69,-1.03 0.23,-0.34 0.47,-0.68 0.7,-1.03 0.23,-0.34 0.46,-0.68 0.69,-1.03 0.24,-0.34 0.47,-0.68 0.7,-1.03 0.23,-0.34 0.46,-0.69 0.7,-1.04 0.23,-0.34 0.46,-0.69 0.69,-1.03 0.23,-0.35 0.46,-0.7 0.7,-1.05 0.23,-0.34 0.46,-0.69 0.69,-1.04 0.23,-0.35 0.47,-0.7 0.7,-1.05 0.23,-0.35 0.46,-0.7 0.69,-1.05 0.23,-0.35 0.47,-0.7 0.7,-1.05 0.23,-0.35 0.46,-0.71 0.69,-1.06 0.24,-0.35 0.47,-0.7 0.7,-1.06 0.23,-0.35 0.46,-0.7 0.7,-1.06 0.23,-0.35 0.46,-0.71 0.69,-1.06 0.23,-0.36 0.46,-0.71 0.7,-1.07 0.23,-0.36 0.46,-0.71 0.69,-1.07 0.23,-0.36 0.47,-0.71 0.7,-1.07 0.23,-0.36 0.46,-0.72 0.69,-1.08 0.23,-0.36 0.47,-0.72 0.7,-1.08 0.23,-0.36 0.46,-0.72 0.69,-1.08 0.24,-0.36 0.47,-0.72 0.7,-1.08 0.23,-0.36 0.46,-0.72 0.69,-1.08 0.24,-0.37 0.47,-0.73 0.7,-1.09 0.23,-0.37 0.46,-0.73 0.7,-1.09 0.23,-0.37 0.46,-0.73 0.69,-1.1 0.23,-0.36 0.47,-0.73 0.7,-1.09 0.23,-0.37 0.46,-0.73 0.69,-1.1 0.23,-0.37 0.47,-0.73 0.7,-1.1 0.23,-0.37 0.46,-0.74 0.69,-1.11 0.24,-0.36 0.47,-0.73 0.7,-1.1 0.23,-0.37 0.46,-0.74 0.69,-1.11 0.24,-0.37 0.47,-0.74 0.7,-1.11 0.23,-0.37 0.46,-0.74 0.7,-1.11 0.23,-0.38 0.46,-0.75 0.69,-1.12 0.23,-0.37 0.47,-0.75 0.7,-1.12 0.23,-0.37 0.46,-0.75 0.69,-1.12 0.23,-0.37 0.47,-0.75 0.7,-1.12 0.23,-0.38 0.46,-0.75 0.69,-1.13 0.24,-0.37 0.47,-0.75 0.7,-1.13 0.23,-0.37 0.46,-0.75 0.69,-1.13 0.24,-0.37 0.47,-0.75 0.7,-1.13 0.23,-0.38 0.46,-0.76 0.7,-1.13 0.23,-0.38 0.46,-0.76 0.69,-1.14 0.23,-0.38 0.46,-0.76 0.7,-1.14 0.23,-0.38 0.46,-0.76 0.69,-1.14 0.23,-0.38 0.47,-0.77 0.7,-1.15 0.23,-0.38 0.46,-0.76 0.69,-1.15 0.24,-0.38 0.47,-0.76 0.7,-1.14 0.23,-0.39 0.46,-0.77 0.69,-1.16 0.24,-0.38 0.47,-0.76 0.7,-1.15 0.23,-0.38 0.46,-0.77 0.7,-1.16 0.23,-0.38 0.46,-0.77 0.69,-1.15 0.23,-0.39 0.46,-0.78 0.7,-1.16 0.23,-0.39 0.46,-0.78 0.69,-1.17 0.23,-0.39 0.47,-0.77 0.7,-1.16 0.23,-0.39 0.46,-0.78 0.69,-1.17 0.23,-0.39 0.47,-0.78 0.7,-1.17 0.23,-0.39 0.46,-0.78 0.69,-1.17 0.24,-0.39 0.47,-0.78 0.7,-1.17 0.23,-0.4 0.46,-0.79 0.7,-1.18 0.23,-0.39 0.46,-0.79 0.69,-1.18 0.23,-0.39 0.46,-0.79 0.7,-1.18 0.23,-0.39 0.46,-0.788 0.69,-1.183 0.23,-0.394 0.47,-0.789 0.7,-1.184 0.23,-0.396 0.46,-0.792 0.69,-1.188 0.23,-0.396 0.47,-0.792 0.7,-1.189 0.23,-0.397 0.46,-0.794 0.69,-1.191 0.24,-0.398 0.47,-0.796 0.7,-1.194 0.23,-0.398 0.46,-0.797 0.7,-1.196"
         inkscape:connector-curvature="0" />
      <path
         style="fill:none;stroke:#ff0000;stroke-width:1.60000002;stroke-linecap:butt;stroke-linejoin:miter;stroke-miterlimit:4;stroke-opacity:1;stroke-dasharray:none"
         d="M 233.70986,392.05769 592.567,446.91483"
         id="path4313"
         inkscape:connector-curvature="0" />
      <path
         style="fill:none;stroke:#0000ff;stroke-width:1.60000002;stroke-linecap:butt;stroke-linejoin:miter;stroke-miterlimit:4;stroke-opacity:1;stroke-dasharray:3.2, 3.2;stroke-dashoffset:0"
         d="m 538.85272,487.60054 0,-338.85714"
         id="path4315"
         inkscape:connector-curvature="0" />
      <path
         transform="matrix(0.8,0,0,-0.8,106.28128,653.376)"
         d="m 209.99999,320.93362 c 0,5.12836 -4.15735,9.28572 -9.28571,9.28572 -5.12836,0 -9.28571,-4.15736 -9.28571,-9.28572 0,-5.12835 4.15735,-9.28571 9.28571,-9.28571 5.12836,0 9.28571,4.15736 9.28571,9.28571 z"
         sodipodi:ry="9.2857141"
         sodipodi:rx="9.2857141"
         sodipodi:cy="320.93362"
         sodipodi:cx="200.71428"
         id="path4319"
         style="fill:#ffffff;stroke:#000000;stroke-width:3;stroke-miterlimit:4;stroke-opacity:1;stroke-dasharray:none;stroke-dashoffset:0"
         sodipodi:type="arc" />
      <path
         sodipodi:type="arc"
         style="fill:#ffffff;stroke:#000000;stroke-width:3;stroke-miterlimit:4;stroke-opacity:1;stroke-dasharray:none;stroke-dashoffset:0"
         id="path4321"
         sodipodi:cx="200.71428"
         sodipodi:cy="320.93362"
         sodipodi:rx="9.2857141"
         sodipodi:ry="9.2857141"
         d="m 209.99999,320.93362 c 0,5.12836 -4.15735,9.28572 -9.28571,9.28572 -5.12836,0 -9.28571,-4.15736 -9.28571,-9.28572 0,-5.12835 4.15735,-9.28571 9.28571,-9.28571 5.12836,0 9.28571,4.15736 9.28571,9.28571 z"
         transform="matrix(0.8,0,0,-0.8,228.56699,671.66171)" />
      <path
         transform="matrix(0.8,0,0,-0.8,378.28128,695.66171)"
         d="m 209.99999,320.93362 c 0,5.12836 -4.15735,9.28572 -9.28571,9.28572 -5.12836,0 -9.28571,-4.15736 -9.28571,-9.28572 0,-5.12835 4.15735,-9.28571 9.28571,-9.28571 5.12836,0 9.28571,4.15736 9.28571,9.28571 z"
         sodipodi:ry="9.2857141"
         sodipodi:rx="9.2857141"
         sodipodi:cy="320.93362"
         sodipodi:cx="200.71428"
         id="path4323"
         style="fill:#ffffff;stroke:#000000;stroke-width:3;stroke-miterlimit:4;stroke-opacity:1;stroke-dasharray:3, 3;stroke-dashoffset:0"
         sodipodi:type="arc" />
      <path
         transform="matrix(0.8,0,0,-0.8,378.85271,483.09029)"
         d="m 209.99999,320.93362 c 0,5.12836 -4.15735,9.28572 -9.28571,9.28572 -5.12836,0 -9.28571,-4.15736 -9.28571,-9.28572 0,-5.12835 4.15735,-9.28571 9.28571,-9.28571 5.12836,0 9.28571,4.15736 9.28571,9.28571 z"
         sodipodi:ry="9.2857141"
         sodipodi:rx="9.2857141"
         sodipodi:cy="320.93362"
         sodipodi:cx="200.71428"
         id="path4325"
         style="fill:#ffffff;stroke:#000000;stroke-width:3;stroke-miterlimit:4;stroke-opacity:1;stroke-dasharray:none;stroke-dashoffset:0"
         sodipodi:type="arc" />
      <text
         xml:space="preserve"
         style="font-size:16px;font-style:normal;font-weight:normal;line-height:125%;letter-spacing:0px;word-spacing:0px;fill:#4d4d4d;fill-opacity:1;stroke:none;font-family:Sans"
         x="239.42413"
         y="-409.77197"
         id="text4327"
         sodipodi:linespacing="125%"
         transform="scale(1,-1)"><tspan
           sodipodi:role="line"
           id="tspan4329"
           x="239.42413"
           y="-409.77197"
           style="font-size:25.60000038px;fill:#4d4d4d">P</tspan></text>
      <text
         xml:space="preserve"
         style="font-size:16px;font-style:normal;font-weight:normal;line-height:125%;letter-spacing:0px;word-spacing:0px;fill:#4d4d4d;fill-opacity:1;stroke:none;font-family:Sans"
         x="389.7438"
         y="-436.60947"
         id="text4327-0"
         sodipodi:linespacing="125%"
         transform="scale(1,-1)"><tspan
           sodipodi:role="line"
           id="tspan4329-2"
           x="389.7438"
           y="-436.60947"
           style="font-size:25.60000038px;fill:#4d4d4d">Q</tspan></text>
      <text
         xml:space="preserve"
         style="font-size:16px;font-style:normal;font-weight:normal;line-height:125%;letter-spacing:0px;word-spacing:0px;fill:#4d4d4d;fill-opacity:1;stroke:none;font-family:Sans"
         x="549.76965"
         y="-409.9809"
         id="text4327-1"
         sodipodi:linespacing="125%"
         transform="scale(1,-1)"><tspan
           sodipodi:role="line"
           id="tspan4329-9"
           x="549.76965"
           y="-409.9809"
           style="font-size:25.60000038px;fill:#4d4d4d">-(P+Q)</tspan></text>
      <text
         xml:space="preserve"
         style="font-size:16px;font-style:normal;font-weight:normal;line-height:125%;letter-spacing:0px;word-spacing:0px;fill:#4d4d4d;fill-opacity:1;stroke:none;font-family:Sans"
         x="551.32141"
         y="-241.7693"
         id="text4327-1-1"
         sodipodi:linespacing="125%"
         transform="scale(1,-1)"><tspan
           sodipodi:role="line"
           id="tspan4329-9-1"
           x="551.32141"
           y="-241.7693"
           style="font-size:25.60000038px;fill:#4d4d4d">P+Q</tspan></text>
    </g>
  </g>
</svg>
